# AST/ASF file generated using VICON BodyLanguage
# -----------------------------------------------
:version 1.10
:name VICON
:units
  mass 1.0
  length 0.45
  angle deg
:documentation
   .ast/.asf automatically generated from VICON data using
   VICON BodyBuilder and BodyLanguage model FoxedUp or BRILLIANT.MOD
:root
   order TX TY TZ RX RY RZ
   axis XYZ
   position 0 0 0  
   orientation 0 0 0 
:bonedata
  begin
     id 1 
     name lhipjoint
     direction 0.575328 -0.747301 0.332475 
     length 2.40933 
     axis 0 0 0  XYZ
  end
  begin
     id 2 
     name lfemur
     direction 0.34202 -0.939693 0  
     length 7.31453  
     axis 0 0 20  XYZ
    dof rx ry rz
    limits (-160.0 20.0)
           (-70.0 70.0)
           (-60.0 70.0)
  end
  begin
     id 3 
     name ltibia
     direction 0.34202 -0.939693 0   
     length 7.82185   
     axis 0 0 20   XYZ
    dof rx
    limits (-10.0 170.0)
  end
  begin
     id 4 
     name lfoot
     direction 0.0795993 -0.218697 0.972541   
     length 2.19173   
     axis -90 7.62852e-016 20   XYZ
    dof rx rz
    limits (-45.0 90.0)
           (-70.0 20.0)
  end
  begin
     id 5 
     name ltoes
     direction 1.53537e-011 -4.21894e-011 1   
     length 1.10023   
     axis -90 7.62852e-016 20   XYZ
    dof rx
    limits (-90.0 20.0)
  end
  begin
     id 6 
     name rhipjoint
     direction -0.513884 -0.783789 0.348708   
     length 2.29716  
     axis 0 0 0  XYZ 
  end
  begin
     id 7 
     name rfemur
     direction -0.34202 -0.939693 0   
     length 7.59573   
     axis 0 0 -20   XYZ
    dof rx ry rz
    limits (-160.0 20.0)
           (-70.0 70.0)
           (-70.0 60.0)
  end
  begin
     id 8 
     name rtibia
     direction -0.34202 -0.939693 0   
     length 7.66402   
     axis 0 0 -20   XYZ
    dof rx
    limits (-10.0 170.0)
 end
 begin
     id 9 
     name rfoot
     direction -0.137793 -0.378584 0.915253   
     length 2.27056  
     axis -90 -7.62852e-016 -20   XYZ
    dof rx rz
    limits (-45.0 90.0)
           (-20.0 70.0)
  end
  begin
     id 10 
     name rtoes
     direction -1.53493e-011 -4.22159e-011 1   
     length 1.11766   
     axis -90 -7.62852e-016 -20   XYZ
    dof rx
    limits (-90.0 20.0)
  end
  begin
     id 11 
     name lowerback
     direction -0.00732775 0.998356 -0.05685   
     length 2.16513   
     axis 0 0 0   XYZ
    dof rx ry rz
    limits (-20.0 45.0)
           (-30.0 30.0)
           (-30.0 30.0)
  end
  begin
     id 12 
     name upperback
     direction 0.0218081 0.999627 -0.0164647   
     length 2.16755   
     axis 0 0 0   XYZ
    dof rx ry rz
    limits (-20.0 45.0)
           (-30.0 30.0)
           (-30.0 30.0)
  end
  begin
     id 13 
     name thorax
     direction 0.02365 0.999661 0.0108914   
     length 2.16932   
     axis 0 0 0   XYZ
    dof rx ry rz
    limits (-20.0 45.0)
           (-30.0 30.0)
           (-30.0 30.0)
  end
  begin
     id 14 
     name lowerneck
     direction -0.0523929 0.978385 0.200044   
     length 1.63877   
     axis 0 0 0   XYZ
    dof rx ry rz
    limits (-20.0 45.0)
           (-30.0 30.0)
           (-30.0 30.0)
  end
  begin
     id 15 
     name upperneck
     direction 0.0448674 0.981321 -0.187074   
     length 1.69014   
     axis 0 0 0   XYZ
    dof rx ry rz
    limits (-20.0 45.0)
           (-30.0 30.0)
           (-30.0 30.0)
  end
  begin
     id 16
     name head
     direction 0.0199089 0.996118 -0.0857429  
     length 1.70094  
     axis 0 0 0   XYZ
    dof rx ry rz
    limits (-20.0 45.0)
           (-30.0 30.0)
           (-30.0 30.0)
  end
  begin
     id 17 
     name lclavicle
     direction 0.940366 0.30191 -0.156722  
     length 3.37521  
     axis 0 0 0   XYZ
    dof ry rz
    limits (-20.0 10.0)
           (0.0 20.0)
  end
  begin
     id 18 
     name lhumerus
     direction 1 -4.4897e-011 -1.7911e-027   
     length 5.25287   
     axis 180 -30 -90   XYZ
    dof rx ry rz
    limits (-60.0 90.0)
           (-90.0 90.0)
           (-90.0 90.0)
  end
  begin
     id 19
     name lradius
     direction 1 -4.48951e-011 1.04424e-027   
     length 3.51014   
     axis 180 -30 -90   XYZ
    dof rx
    limits (-10.0 170.0)
  end
  begin
     id 20
     name lwrist
     direction 1 -4.48997e-011 -9.5942e-028   
     length 1.75507   
     axis 8.48502e-016 90 90   XYZ
    dof ry
    limits (-180.0 0.0)
 end
  begin
     id 21 
     name lhand
     direction 1 -4.48831e-011 -1.90777e-027   
     length 0.706179   
     axis 1.22306e-015 90 90   XYZ
    dof rx rz
    limits (-90.0 90.0)
           (-45.0 45.0)
  end
  begin
     id 22 
     name lfingers
     direction 1 -4.49108e-011 -3.85244e-027   
     length 0.569339   
     axis 2.44611e-015 90 90   XYZ
    dof rx
    limits (0.0 90.0)
  end
  begin
     id 23
     name lthumb
     direction 0.707107 -6.34953e-011 0.707107   
     length 0.817461   
     axis -90 45 -1.62303e-014   XYZ
    dof rx rz
    limits (-45.0 45.0)
           (-45.0 45.0)
  end
  begin
     id 24 
     name rclavicle
     direction -0.905329 0.382405 -0.184787   
     length 3.30787  
     axis 0 0 0   XYZ 
    dof ry rz
    limits (-10.0 20.0)
           (-20.0 0.0)
  end
  begin
     id 25 
     name rhumerus
     direction -1 -4.48953e-011 -9.15316e-029  
     length 5.28721   
     axis 180 30 90   XYZ
    dof rx ry rz
    limits (-90.0 60.0)
           (-90.0 90.0)
           (-90.0 90.0)
  end
  begin
     id 26 
     name rradius
     direction -1 -4.48987e-011 9.37824e-028   
     length 3.50544   
     axis 180 30 90   XYZ
    dof rx
    limits (-10.0 170.0)
  end
  begin
     id 27 
     name rwrist
     direction -1 -4.48967e-011 -9.58414e-028   
     length 1.75272   
     axis 8.48502e-016 -90 -90   XYZ
    dof ry
    limits (-180.0 0.0)
  end
  begin
     id 28
     name rhand
     direction -1 -4.48904e-011 -1.91266e-027   
     length 0.884996   
     axis 1.22306e-015 -90 -90   XYZ
    dof rx rz
    limits (-90.0 90.0)
           (-45.0 45.0)
  end
  begin
     id 29
     name rfingers
     direction -1 -4.4909e-011 -3.85015e-027   
     length 0.713507   
     axis 2.44611e-015 -90 -90   XYZ
    dof rx
    limits (0.0 90.0)
  end
  begin
     id 30
     name rthumb
     direction -0.707107 -6.34853e-011 0.707107   
     length 1.02446   
     axis -90 -45 1.62303e-014   XYZ
    dof rx rz
    limits (-45.0 45.0)
           (-45.0 45.0)
  end
:hierarchy
  begin
    root lhipjoint rhipjoint lowerback
    lhipjoint lfemur
    lfemur ltibia
    ltibia lfoot
    lfoot ltoes
    rhipjoint rfemur
    rfemur rtibia
    rtibia rfoot
    rfoot rtoes
    lowerback upperback
    upperback thorax
    thorax lowerneck lclavicle rclavicle
    lowerneck upperneck
    upperneck head
    lclavicle lhumerus
    lhumerus lradius
    lradius lwrist
    lwrist lhand lthumb
    lhand lfingers
    rclavicle rhumerus
    rhumerus rradius
    rradius rwrist
    rwrist rhand rthumb
    rhand rfingers
  end

#!OML:ASF F:\twosubjects\two\Thursday\Session 1\justin.ASF
:FULLY-SPECIFIED
:DEGREES
33
root 7.59829 9.83176 -20.8044 -11.2923 -1.30869 -4.65002
lowerback 44.4418 1.44236 5.78556
upperback 7.47939 4.91508 3.25637
thorax -12.2121 1.99393 -1.66653
lowerneck -12.348 -4.86943 -9.16221
upperneck -2.24642 -5.40108 8.48973
head 1.79411 -2.43424 3.7618
rclavicle -4.8901e-014 -3.10104e-014
rhumerus -0.152139 15.022 -67.497
rradius 67.1524
rwrist -6.17109
rhand -10.0171 19.7143
rfingers 7.12502
rthumb 15.9672 -9.6476
lclavicle -4.8901e-014 -3.10104e-014
lhumerus 14.4741 -23.4999 74.2321
lradius 64.7118
lwrist -6.98193
lhand -2.8666 39.7594
lfingers 7.12502
lthumb 22.842 68.4267
rfemur -47.6181 -23.8979 -14.2948
rtibia 105.999
rfoot -33.278 1.07096
rtoes -36.4208
lfemur -71.7584 31.4695 8.81551
ltibia 85.5793
lfoot -8.59592 -15.8956
ltoes -17.47
34
root 7.59655 9.84074 -20.7583 -10.457 -1.26482 -4.93753
lowerback 44.3268 1.37114 5.69683
upperback 7.56143 4.81803 3.56848
thorax -12.1259 1.95383 -1.23392
lowerneck -13.3419 -4.78951 -10.0187
upperneck -2.40828 -5.0721 8.51592
head 1.89002 -2.24229 3.91597
rclavicle -2.54444e-014 -6.36111e-015
rhumerus 2.42761 14.6482 -68.6347
rradius 64.1305
rwrist -5.34701
rhand -11.5376 21.8437
rfingers 7.12502
rthumb 14.5025 -7.62946
lclavicle -2.54444e-014 -6.36111e-015
lhumerus 16.3026 -23.3517 75.059
lradius 62.1481
lwrist -3.73952
lhand -2.39485 39.0702
lfingers 7.12502
lthumb 23.2946 67.681
rfemur -47.8598 -24.4074 -13.6329
rtibia 105.768
rfoot -34.0525 0.239631
rtoes -36.6325
lfemur -72.3989 32.4356 8.06639
ltibia 84.852
lfoot -7.67168 -16.8912
ltoes -17.2837
35
root 7.59431 9.85812 -20.716 -9.58737 -0.90225 -5.29809
lowerback 44.2821 1.12627 5.8552
upperback 7.57399 4.62731 3.82926
thorax -12.1159 1.86308 -0.94266
lowerneck -14.7753 -4.82483 -11.3083
upperneck -2.03175 -4.79294 8.934
head 2.23756 -2.05269 4.25042
rclavicle 1.39149e-014 2.3059e-014
rhumerus 4.67942 14.2839 -69.9117
rradius 61.4476
rwrist -4.87188
rhand -13.9054 23.95
rfingers 7.12502
rthumb 12.2203 -5.67299
lclavicle 1.39149e-014 2.3059e-014
lhumerus 17.9832 -23.7422 75.599
lradius 60.1297
lwrist 0.181857
lhand -2.22431 38.7174
lfingers 7.12502
lthumb 23.4582 67.3073
rfemur -48.2191 -24.9844 -13.1424
rtibia 105.756
rfoot -34.0319 0.206571
rtoes -36.4771
lfemur -73.087 32.9062 7.42302
ltibia 83.9334
lfoot -6.0855 -18.8721
ltoes -20.1838
36
root 7.58599 9.88245 -20.6752 -8.65606 -0.435349 -5.6301
lowerback 44.2083 0.903496 5.85039
upperback 7.53651 4.4067 4.17762
thorax -12.1782 1.76035 -0.461722
lowerneck -16.0574 -4.91407 -12.4366
upperneck -1.8196 -4.57795 9.15757
head 2.50241 -1.9049 4.5025
rclavicle 8.34896e-015 1.27222e-014
rhumerus 6.58948 14.4042 -71.0527
rradius 59.4692
rwrist -5.36642
rhand -16.3918 25.3563
rfingers 7.12502
rthumb 9.82215 -4.39466
lclavicle 8.34896e-015 1.27222e-014
lhumerus 19.5637 -23.7415 76.8309
lradius 57.6923
lwrist 2.93629
lhand -2.00927 37.8644
lfingers 7.12502
lthumb 23.6645 66.4278
rfemur -48.9011 -25.5702 -12.6644
rtibia 105.839
rfoot -33.5691 0.417031
rtoes -36.2879
lfemur -74.0147 33.1537 6.97062
ltibia 83.0049
lfoot -2.08161 -21.6183
ltoes -19.4111
37
root 7.57943 9.91867 -20.6246 -7.71963 -0.301592 -5.8675
lowerback 43.9815 0.93621 5.60293
upperback 7.61393 4.36555 4.53986
thorax -12.0791 1.75043 0.0797043
lowerneck -17.6852 -5.07985 -13.3102
upperneck -1.42632 -4.43731 9.26147
head 2.86741 -1.79384 4.66888
rclavicle -2.38542e-014 -3.97569e-015
rhumerus 8.32899 14.7757 -71.8846
rradius 58.0851
rwrist -6.61716
rhand -19.4214 26.7896
rfingers 7.12502
rthumb 6.89833 -3.07797
lclavicle -2.38542e-014 -3.97569e-015
lhumerus 21.1806 -23.5151 78.4259
lradius 54.8776
lwrist 3.31056
lhand -3.87009 36.2895
lfingers 7.12502
lthumb 21.8787 65.0725
rfemur -49.9367 -25.8027 -12.0518
rtibia 105.911
rfoot -32.7731 0.321336
rtoes -36.4904
lfemur -74.7638 33.6308 6.73874
ltibia 82.2218
lfoot 2.05557 -22.8201
ltoes -14.5496
